<svg width="32" height="32" viewBox="0 0 32 32" fill="none" xmlns="http://www.w3.org/2000/svg">
<path d="M7.72727 28.6667C6.73455 28.6667 5.86909 28.0825 5.44909 27.2386L2.12727 14.9572L2 14.386C2 14.0416 2.13409 13.7114 2.37277 13.468C2.61146 13.2245 2.93518 13.0877 3.27273 13.0877H9.10182L14.9564 4.55825C15.1855 4.2207 15.5673 4 16 4C16.4327 4 16.8273 4.2207 17.0564 4.57123L22.8982 13.0877H28.7273C29.0648 13.0877 29.3885 13.2245 29.6272 13.468C29.8659 13.7114 30 14.0416 30 14.386L29.9491 14.7625L26.5509 27.2386C26.1309 28.0825 25.2655 28.6667 24.2727 28.6667H7.72727ZM16 7.55719L12.1818 13.0877H19.8182L16 7.55719ZM16 18.2807C15.3249 18.2807 14.6775 18.5543 14.2001 19.0412C13.7227 19.5281 13.4545 20.1886 13.4545 20.8772C13.4545 21.5658 13.7227 22.2263 14.2001 22.7132C14.6775 23.2001 15.3249 23.4737 16 23.4737C16.6751 23.4737 17.3225 23.2001 17.7999 22.7132C18.2773 22.2263 18.5455 21.5658 18.5455 20.8772C18.5455 20.1886 18.2773 19.5281 17.7999 19.0412C17.3225 18.5543 16.6751 18.2807 16 18.2807Z" fill="#ECAFD0"/>
</svg>
