<svg width="161" height="36" viewBox="0 0 161 36" fill="none" xmlns="http://www.w3.org/2000/svg">
<path d="M3.97166 0.809467V6.34793C5.21013 6.22012 7.00379 6.17751 8.41308 6.17751C10.9327 6.17751 22.378 6.17751 24.7268 6.17751C26.3069 6.17751 28.3141 6.26272 29.4244 6.34793V0.809467C28.2714 0.979882 26.1788 1.06509 24.8122 1.06509C22.3352 1.06509 11.1036 1.06509 8.41308 1.06509C6.96108 1.06509 5.12472 0.979882 3.97166 0.809467ZM33.0545 13.2071L29.2536 10.8213C28.6557 11.1195 27.5027 11.2899 26.0934 11.2899C23.1894 11.2899 7.90061 11.2899 4.9966 11.2899C3.63001 11.2899 1.83636 11.1621 0 10.9917V16.5302C1.79365 16.4024 3.92895 16.3598 4.9966 16.3598C8.79744 16.3598 23.4456 16.3598 25.5809 16.3598C24.8549 18.703 23.4883 21.387 21.2249 23.6876C17.9365 27.0533 12.8545 29.8225 6.4059 31.1858L10.6765 36C16.1429 34.4237 21.6092 31.5692 25.9226 26.755C29.0828 23.2615 30.9192 19.0864 32.243 14.9538C32.3712 14.5278 32.7555 13.7609 33.0545 13.2071Z" fill="#ECAFD0"/>
<path d="M41.0405 13.7609V20.4923C42.6633 20.3645 45.5246 20.2367 47.9161 20.2367C52.9555 20.2367 67.0057 20.2367 70.892 20.2367C72.6856 20.2367 74.8636 20.4497 75.8886 20.4923V13.7609C74.7355 13.8462 72.8565 14.0592 70.8493 14.0592C67.0484 14.0592 52.9555 14.0592 47.9161 14.0592C45.6954 14.0592 42.6206 13.8888 41.0405 13.7609Z" fill="#ECAFD0"/>
<path d="M114.152 2.17278L107.788 0C107.575 1.06509 107.148 2.81183 106.763 3.91953C105.269 8.17988 103.347 12.568 99.9731 16.9988C95.4463 22.8781 90.108 27.6071 82.3355 31.3136L87.0759 35.6592C95.3609 31.1006 100.614 25.6047 104.585 20.4923C108.13 15.8911 110.735 10.2675 112.358 6.0497C112.742 5.02722 113.554 3.15266 114.152 2.17278ZM90.6632 6.30533L86.9905 10.6509C92.3714 13.9314 97.368 17.7657 100.443 20.3219C104.97 24.071 108.728 27.5645 112.443 31.9101L116.842 27.0107C113.383 23.3467 108.899 19.342 104.329 15.8059C100.742 12.9941 94.8911 8.94674 90.6632 6.30533Z" fill="#ECAFD0"/>
<path d="M131.148 1.10769L127.091 5.41065C130.209 7.54083 135.59 12.1846 137.811 14.5704L142.167 10.1396C139.647 7.54083 134.095 3.11006 131.148 1.10769ZM125.768 29.4817L129.398 35.1053C135.376 34.0828 140.885 31.7396 145.241 29.1408C152.117 25.0083 157.797 19.129 161 13.3349L157.712 7.37041C154.978 13.1219 149.427 19.5976 142.124 23.9432C137.981 26.3716 132.472 28.5444 125.768 29.4817Z" fill="#ECAFD0"/>
</svg>
